# AST/ASF file generated using VICON BodyLanguage
# -----------------------------------------------
:version 1.10
:name VICON
:units
  mass 1.0
  length 0.45
  angle deg
:documentation
   .ast/.asf automatically generated from VICON data using
   VICON BodyBuilder and BodyLanguage model FoxedUp or BRILLIANT.MOD
:root
   order TX TY TZ RX RY RZ
   axis XYZ
   position 0 0 0  
   orientation 0 0 0 
:bonedata
  begin
     id 1 
     name lhipjoint
     direction 0.710087 -0.641647 0.289942 
     length 2.79038 
     axis 0 0 0  XYZ
  end
  begin
     id 2 
     name lfemur
     direction 0.34202 -0.939693 0  
     length 7.2706  
     axis 0 0 20  XYZ
    dof rx ry rz
    limits (-160.0 20.0)
           (-70.0 70.0)
           (-60.0 70.0)
  end
  begin
     id 3 
     name ltibia
     direction 0.34202 -0.939693 0   
     length 7.86328   
     axis 0 0 20   XYZ
    dof rx
    limits (-10.0 170.0)
  end
  begin
     id 4 
     name lfoot
     direction 0.0541246 -0.148706 0.987399   
     length 2.37542   
     axis -90 7.62852e-016 20   XYZ
    dof rx rz
    limits (-45.0 90.0)
           (-70.0 20.0)
  end
  begin
     id 5 
     name ltoes
     direction 1.53554e-011 -4.21866e-011 1   
     length 1.19593   
     axis -90 7.62852e-016 20   XYZ
    dof rx
    limits (-90.0 20.0)
  end
  begin
     id 6 
     name rhipjoint
     direction -0.675762 -0.671724 0.303533   
     length 2.66544  
     axis 0 0 0  XYZ 
  end
  begin
     id 7 
     name rfemur
     direction -0.34202 -0.939693 0   
     length 8.11844   
     axis 0 0 -20   XYZ
    dof rx ry rz
    limits (-160.0 20.0)
           (-70.0 70.0)
           (-70.0 60.0)
  end
  begin
     id 8 
     name rtibia
     direction -0.34202 -0.939693 0   
     length 7.97082   
     axis 0 0 -20   XYZ
    dof rx
    limits (-10.0 170.0)
 end
 begin
     id 9 
     name rfoot
     direction -0.0726228 -0.199474 0.977208   
     length 2.19677  
     axis -90 -7.62852e-016 -20   XYZ
    dof rx rz
    limits (-45.0 90.0)
           (-20.0 70.0)
  end
  begin
     id 10 
     name rtoes
     direction -1.53508e-011 -4.21913e-011 1   
     length 1.10438   
     axis -90 -7.62852e-016 -20   XYZ
    dof rx
    limits (-90.0 20.0)
  end
  begin
     id 11 
     name lowerback
     direction -0.00404436 0.999673 -0.0252643   
     length 2.03972   
     axis 0 0 0   XYZ
    dof rx ry rz
    limits (-20.0 45.0)
           (-30.0 30.0)
           (-30.0 30.0)
  end
  begin
     id 12 
     name upperback
     direction 0.00744643 0.999969 0.00242763   
     length 2.04273   
     axis 0 0 0   XYZ
    dof rx ry rz
    limits (-20.0 45.0)
           (-30.0 30.0)
           (-30.0 30.0)
  end
  begin
     id 13 
     name thorax
     direction 0.00846113 0.999862 0.0143204   
     length 2.03752   
     axis 0 0 0   XYZ
    dof rx ry rz
    limits (-20.0 45.0)
           (-30.0 30.0)
           (-30.0 30.0)
  end
  begin
     id 14 
     name lowerneck
     direction 0.0328213 0.990857 0.130862   
     length 1.37497   
     axis 0 0 0   XYZ
    dof rx ry rz
    limits (-20.0 45.0)
           (-30.0 30.0)
           (-30.0 30.0)
  end
  begin
     id 15 
     name upperneck
     direction -0.0302832 0.999496 0.00956452   
     length 1.35926   
     axis 0 0 0   XYZ
    dof rx ry rz
    limits (-20.0 45.0)
           (-30.0 30.0)
           (-30.0 30.0)
  end
  begin
     id 16
     name head
     direction -0.0130455 0.999856 -0.0108809  
     length 1.44454  
     axis 0 0 0   XYZ
    dof rx ry rz
    limits (-20.0 45.0)
           (-30.0 30.0)
           (-30.0 30.0)
  end
  begin
     id 17 
     name lclavicle
     direction 0.952957 0.278766 0.119006  
     length 3.10112  
     axis 0 0 0   XYZ
    dof ry rz
    limits (-20.0 10.0)
           (0.0 20.0)
  end
  begin
     id 18 
     name lhumerus
     direction 1 -4.48972e-011 -1.63238e-028   
     length 5.82845   
     axis -180 -30 -90   XYZ
    dof rx ry rz
    limits (-60.0 90.0)
           (-90.0 90.0)
           (-90.0 90.0)
  end
  begin
     id 19
     name lradius
     direction 1 -4.48959e-011 1.45401e-026   
     length 3.49691   
     axis -180 -30 -90   XYZ
    dof rx
    limits (-10.0 170.0)
  end
  begin
     id 20
     name lwrist
     direction 1 -4.48945e-011 2.98015e-026   
     length 1.74845   
     axis -1.7599e-014 90 90   XYZ
    dof ry
    limits (-180.0 0.0)
 end
  begin
     id 21 
     name lhand
     direction 1 -4.4902e-011 5.9603e-026   
     length 0.674998   
     axis -3.80318e-014 90 90   XYZ
    dof rx rz
    limits (-90.0 90.0)
           (-45.0 45.0)
  end
  begin
     id 22 
     name lfingers
     direction 1 -4.48979e-011 1.19206e-025   
     length 0.544201   
     axis -7.60636e-014 90 90   XYZ
    dof rx
    limits (0.0 90.0)
  end
  begin
     id 23
     name lthumb
     direction 0.707107 -6.34941e-011 0.707107   
     length 0.781367   
     axis -90 45 2.85299e-015   XYZ
    dof rx rz
    limits (-45.0 45.0)
           (-45.0 45.0)
  end
  begin
     id 24 
     name rclavicle
     direction -0.967632 0.241887 0.0719654   
     length 3.53012  
     axis 0 0 0   XYZ 
    dof ry rz
    limits (-10.0 20.0)
           (-20.0 0.0)
  end
  begin
     id 25 
     name rhumerus
     direction -1 -4.4897e-011 6.87619e-028  
     length 5.45859   
     axis -180 30 90   XYZ
    dof rx ry rz
    limits (-90.0 60.0)
           (-90.0 90.0)
           (-90.0 90.0)
  end
  begin
     id 26 
     name rradius
     direction -1 -4.48967e-011 1.68055e-026   
     length 3.58491   
     axis -180 30 90   XYZ
    dof rx
    limits (-10.0 170.0)
  end
  begin
     id 27 
     name rwrist
     direction -1 -4.48976e-011 2.98015e-026   
     length 1.79245   
     axis -1.7599e-014 -90 -90   XYZ
    dof ry
    limits (-180.0 0.0)
  end
  begin
     id 28
     name rhand
     direction -1 -4.48996e-011 5.9603e-026   
     length 0.683735   
     axis -3.80318e-014 -90 -90   XYZ
    dof rx rz
    limits (-90.0 90.0)
           (-45.0 45.0)
  end
  begin
     id 29
     name rfingers
     direction -1 -4.48924e-011 1.19206e-025   
     length 0.551245   
     axis -7.60636e-014 -90 -90   XYZ
    dof rx
    limits (0.0 90.0)
  end
  begin
     id 30
     name rthumb
     direction -0.707107 -6.3492e-011 0.707107   
     length 0.791481   
     axis -90 -45 -2.85299e-015   XYZ
    dof rx rz
    limits (-45.0 45.0)
           (-45.0 45.0)
  end
:hierarchy
  begin
    root lhipjoint rhipjoint lowerback
    lhipjoint lfemur
    lfemur ltibia
    ltibia lfoot
    lfoot ltoes
    rhipjoint rfemur
    rfemur rtibia
    rtibia rfoot
    rfoot rtoes
    lowerback upperback
    upperback thorax
    thorax lowerneck lclavicle rclavicle
    lowerneck upperneck
    upperneck head
    lclavicle lhumerus
    lhumerus lradius
    lradius lwrist
    lwrist lhand lthumb
    lhand lfingers
    rclavicle rhumerus
    rhumerus rradius
    rradius rwrist
    rwrist rhand rthumb
    rhand rfingers
  end

#!OML:ASF F:\VICON\USERDATA\INSTALL\rory3\rory3.ASF
:FULLY-SPECIFIED
:DEGREES
201
root -2.42665 17.2762 7.96709 -9.17705 -99.1692 5.06517
lowerback 4.93997 -0.118133 -1.27465
upperback 0.650673 -0.313561 -2.24116
thorax -2.10683 -0.169515 -1.56715
lowerneck -17.4103 9.07544 7.61068
upperneck 3.42771 10.8532 -5.87795
head 4.5095 5.0582 -2.02466
rclavicle -1.80521e-014 -2.3059e-014
rhumerus 23.2563 -43.3672 -18.8378
rradius 42.1266
rwrist -17.98
rhand -19.7642 56.6864
rfingers 7.12502
rthumb 6.56745 26.8083
lclavicle -1.80521e-014 -2.3059e-014
lhumerus 39.189 38.5674 11.5307
lradius 51.0058
lwrist 45.5816
lhand 152.688 -121.401
lfingers 7.12502
lthumb -180.722 -451.422
rfemur -9.78795 4.02467 9.18983
rtibia 50.7503
rfoot -23.6436 3.55017
rtoes -31.9347
lfemur -2.61902 -4.54666 -12.3502
ltibia 37.7379
lfoot -18.3679 2.59446
ltoes -20.1502
202
root -2.37538 17.3112 7.97511 -8.53541 -98.6298 4.73885
lowerback 4.98892 -0.0387309 -0.870439
upperback 0.805856 -0.176484 -2.05761
thorax -1.97256 -0.102143 -1.61407
lowerneck -18.7161 9.33335 6.95402
upperneck 4.22953 11.2136 -5.25305
head 4.90507 5.23302 -1.63101
rclavicle 1.60728e-014 4.77083e-015
rhumerus 22.4423 -43.5221 -18.5551
rradius 42.7034
rwrist -18.0851
rhand -20.2992 57.0834
rfingers 7.12502
rthumb 6.05091 27.1898
lclavicle 1.60728e-014 4.77083e-015
lhumerus 38.6527 39.6147 12.9181
lradius 49.502
lwrist 45.5616
lhand 152.879 -121.264
lfingers 7.12502
lthumb -180.537 -451.285
rfemur -9.81752 3.99443 9.14716
rtibia 50.1272
rfoot -23.5722 2.78951
rtoes -34.2488
lfemur -3.97918 -4.17602 -11.5904
ltibia 38.7177
lfoot -17.293 1.27559
ltoes -25.1243
203
root -2.32684 17.3475 7.9997 -8.02582 -98.0174 4.58692
lowerback 5.03629 -0.0997046 -0.279946
upperback 0.874958 -0.226761 -2.12222
thorax -1.93149 -0.130865 -2.00923
lowerneck -20.3729 9.69178 6.34094
upperneck 5.44176 11.6576 -4.24568
head 5.46155 5.47214 -1.0871
rclavicle -1.93256e-014 2.38542e-015
rhumerus 21.2264 -43.1313 -18.3572
rradius 43.4992
rwrist -18.7341
rhand -20.4511 56.785
rfingers 7.12502
rthumb 5.90431 26.8872
lclavicle -1.93256e-014 2.38542e-015
lhumerus 37.7627 40.4071 13.2405
lradius 48.4013
lwrist 45.9088
lhand 152.538 -121.474
lfingers 7.12502
lthumb -180.866 -451.496
rfemur -9.78964 4.01504 8.99308
rtibia 49.2758
rfoot -23.5046 3.24973
rtoes -31.3041
lfemur -5.34913 -4.23702 -10.8612
ltibia 39.7578
lfoot -16.805 0.652153
ltoes -28.5593
204
root -2.28253 17.3847 8.04264 -9.62549 -97.5692 6.54624
lowerback 5.00862 -0.192014 0.53155
upperback 0.84343 -0.300801 -2.06233
thorax -1.95445 -0.171201 -2.39951
lowerneck -19.8476 10.3495 7.22842
upperneck 5.14086 12.415 -4.87183
head 5.41746 5.8231 -1.34471
rclavicle 6.08778e-016 5.56597e-015
rhumerus 20.0594 -42.403 -18.3187
rradius 44.2442
rwrist -19.2402
rhand -20.5736 56.6409
rfingers 7.12502
rthumb 5.78607 26.7399
lclavicle 6.08778e-016 5.56597e-015
lhumerus 36.9721 40.9419 13.5087
lradius 47.0469
lwrist 45.5336
lhand 152.38 -121.966
lfingers 7.12502
lthumb -181.019 -451.989
rfemur -9.6578 3.86162 9.05027
rtibia 48.2018
rfoot -23.2766 3.96801
rtoes -27.389
lfemur -6.4746 -4.49132 -9.75142
ltibia 40.7159
lfoot -16.2123 3.47973
ltoes -28.648
205
root -2.24454 17.418 8.09272 -9.98163 -97.1246 7.14631
lowerback 4.87682 -0.188235 0.732061
upperback 0.915542 -0.275316 -1.82189
thorax -1.8051 -0.156004 -2.26614
lowerneck -18.7316 10.8452 7.81104
upperneck 4.1351 13.0899 -5.85296
head 5.07557 6.1187 -1.71994
rclavicle 3.3048e-015 -7.15625e-015
rhumerus 19.4964 -42.3514 -18.5872
rradius 44.316
rwrist -18.7224
rhand -20.3194 57.4388
rfingers 7.12502
rthumb 6.03146 27.5447
lclavicle 3.3048e-015 -7.15625e-015
lhumerus 36.7483 41.5307 14.5942
lradius 45.637
lwrist 44.215
lhand 152.347 -121.812
lfingers 7.12502
lthumb -181.051 -451.835
rfemur -9.28912 3.73655 8.97255
rtibia 46.9959
rfoot -23.3997 3.60129
rtoes -26.9693
lfemur -7.17453 -4.96508 -8.75811
ltibia 41.4132
lfoot -16.082 5.35098
ltoes -22.6915
206
root -2.21361 17.4555 8.16054 -7.88717 -96.7993 5.19143
lowerback 4.78486 -0.1412 0.571821
upperback 0.974691 -0.21899 -1.76653
thorax -1.68961 -0.125832 -2.12242
lowerneck -18.1683 11.174 7.8699
upperneck 3.70813 13.5665 -6.08083
head 4.90601 6.35184 -1.77666
rclavicle 2.98177e-016 0
rhumerus 18.8931 -42.3787 -19.1919
rradius 44.3818
rwrist -18.0389
rhand -19.9552 58.1644
rfingers 7.12502
rthumb 6.38303 28.2806
lclavicle 2.98177e-016 0
lhumerus 36.7625 42.104 15.4652
lradius 44.5106
lwrist 43.1611
lhand 152.354 -120.854
lfingers 7.12502
lthumb -181.044 -450.877
rfemur -8.83269 3.77233 8.55407
rtibia 45.7353
rfoot -23.7513 3.29547
rtoes -25.7965
lfemur -7.52376 -5.67148 -8.04388
ltibia 41.7088
lfoot -15.7487 7.25231
ltoes -12.9441
207
root -2.19256 17.4885 8.23803 -7.4291 -96.5801 4.72398
lowerback 4.83892 -0.025265 0.444915
upperback 1.05006 -0.0744316 -1.84725
thorax -1.63641 -0.0535477 -2.14304
lowerneck -17.7611 11.4802 8.29871
upperneck 3.274 13.9012 -6.18426
head 4.76397 6.5259 -1.85948
rclavicle -1.05604e-015 1.51076e-014
rhumerus 17.6322 -42.3969 -19.6018
rradius 44.5428
rwrist -17.502
rhand -19.3269 57.7937
rfingers 7.12502
rthumb 6.98958 27.9291
lclavicle -1.05604e-015 1.51076e-014
lhumerus 37.8123 42.7945 16.7032
lradius 43.1454
lwrist 42.3245
lhand 152.812 -120.698
lfingers 7.12502
lthumb -180.602 -450.719
rfemur -8.21694 3.95497 8.37414
rtibia 44.5191
rfoot -24.213 2.19097
rtoes -27.8159
lfemur -7.5269 -6.34365 -7.11314
ltibia 41.495
lfoot -14.4247 10.1373
ltoes -7.60688
208
root -2.17822 17.5075 8.31634 -3.50113 -96.4798 0.857221
lowerback 4.64531 0.13172 -0.273228
upperback 1.11462 0.0886143 -2.18913
thorax -1.45608 0.0279433 -2.10014
lowerneck -17.7222 11.8145 8.4705
upperneck 3.20296 14.3005 -6.08516
head 4.76347 6.73101 -1.80993
rclavicle -5.71506e-015 -4.37326e-014
rhumerus 15.8854 -42.2478 -20.0814
rradius 44.6163
rwrist -17.3879
rhand -18.8345 57.8901
rfingers 7.12502
rthumb 7.46491 28.0418
lclavicle -5.71506e-015 -4.37326e-014
lhumerus 38.9332 43.3148 17.3129
lradius 41.9839
lwrist 41.9878
lhand 152.918 -120.922
lfingers 7.12502
lthumb -180.499 -450.942
rfemur -7.78582 3.95512 7.70378
rtibia 43.3635
rfoot -24.2807 1.82041
rtoes -27.5203
lfemur -7.38724 -7.12179 -6.56643
ltibia 40.7732
lfoot -11.8416 13.5328
ltoes -9.12334
209
root -2.16939 17.523 8.40243 2.5565 -96.572 -5.14388
lowerback 4.52263 0.289329 -1.54188
upperback 1.07991 0.229733 -2.37947
thorax -1.42292 0.0985665 -1.59083
lowerneck -17.5837 12.0001 8.05691
upperneck 2.88551 14.6254 -6.02116
head 4.6294 6.89199 -1.71186
rclavicle -3.08116e-015 -4.21423e-014
rhumerus 14.15 -41.4639 -20.0515
rradius 44.5335
rwrist -17.3869
rhand -18.9492 58.2976
rfingers 7.12502
rthumb 7.35417 28.4454
lclavicle -3.08116e-015 -4.21423e-014
lhumerus 39.6112 43.831 17.7501
lradius 41.491
lwrist 42.0331
lhand 152.562 -120.523
lfingers 7.12502
lthumb -180.843 -450.545
rfemur -7.47788 3.92583 6.66371
rtibia 42.2482
rfoot -24.2442 2.22427
rtoes -23.7166
lfemur -6.96472 -8.20733 -6.24803
ltibia 39.6673
lfoot -9.26946 16.3145
ltoes -9.01739
210
root -2.16913 17.5396 8.5116 2.61007 -96.8529 -5.22182
lowerback 4.39611 0.50594 -1.94075
upperback 1.11283 0.497551 -2.52774
thorax -1.31619 0.230608 -1.53335
lowerneck -17.0194 12.0607 7.57954
upperneck 2.05569 14.7992 -5.94422
head 4.25581 6.99253 -1.65902
rclavicle -7.42958e-015 -7.15625e-015
rhumerus 12.3749 -40.9508 -20.148
rradius 44.1672
rwrist -17.1793
rhand -19.0534 58.8079
rfingers 7.12502
rthumb 7.25358 28.9522
lclavicle -7.42958e-015 -7.15625e-015
lhumerus 41.1496 44.4707 18.836
lradius 41.3819
lwrist 41.3813
lhand 152.447 -120.253
lfingers 7.12502
lthumb -180.954 -450.276
rfemur -7.05757 4.24609 6.32729
rtibia 41.1504
rfoot -24.3656 1.42339
rtoes -26.1741
lfemur -6.12186 -9.48576 -5.30089
ltibia 38.2848
lfoot -7.54231 18.7678
ltoes -6.51567
211
root -2.16766 17.5481 8.64625 -1.79769 -97.0956 -0.934795
lowerback 4.42925 0.652768 -1.7728
upperback 1.14357 0.701597 -2.49561
thorax -1.29894 0.332355 -1.6058
lowerneck -15.9746 12.1862 7.42834
upperneck 0.705726 15.0548 -6.61871
head 3.74327 7.10983 -1.90659
rclavicle 1.2424e-014 -1.66979e-014
rhumerus 10.4336 -40.3056 -19.9732
rradius 43.8201
rwrist -16.9989
rhand -18.9186 59.1153
rfingers 7.12502
rthumb 7.38372 29.2641
lclavicle 1.2424e-014 -1.66979e-014
lhumerus 42.3522 44.9434 19.5424
lradius 41.696
lwrist 41.0842
lhand 152.405 -120.248
lfingers 7.12502
lthumb -180.995 -450.271
rfemur -6.5062 4.62369 6.54157
rtibia 40.0695
rfoot -24.1498 0.861553
rtoes -26.1586
lfemur -5.01381 -10.7681 -3.89718
ltibia 36.7423
lfoot -7.41608 20.964
ltoes -3.88869
212
root -2.1661 17.5489 8.79918 -6.33926 -97.3164 3.50855
lowerback 4.36161 0.761672 -1.57313
upperback 1.27392 0.862349 -2.44739
thorax -1.12266 0.411927 -1.67465
lowerneck -15.3162 12.3659 6.86455
upperneck -0.642211 15.3815 -7.01911
head 3.24444 7.2706 -1.9928
rclavicle 5.09386e-015 -3.10104e-014
rhumerus 8.76123 -40.0736 -20.0474
rradius 43.4016
rwrist -16.3957
rhand -18.578 59.0254
rfingers 7.12502
rthumb 7.71247 29.186
lclavicle 5.09386e-015 -3.10104e-014
lhumerus 43.0584 45.2855 19.3154
lradius 42.0262
lwrist 41.4987
lhand 152.038 -120.968
lfingers 7.12502
lthumb -181.349 -450.993
rfemur -6.00207 4.98045 6.67812
rtibia 39.035
rfoot -23.4482 0.697137
rtoes -25.8412
lfemur -3.80895 -12.2163 -2.59524
ltibia 35.1477
lfoot -7.35813 22.857
ltoes -6.35502
213
root -2.16878 17.5474 8.96191 -7.05049 -97.6295 4.12138
lowerback 4.24356 0.911853 -1.97762
upperback 1.33132 1.04489 -2.53779
thorax -1.00019 0.500811 -1.54776
lowerneck -14.9319 12.545 6.2542
upperneck -1.80408 15.6798 -6.78769
head 3.13204 7.45152 -2.05418
rclavicle 5.96354e-015 8.74653e-015
rhumerus 7.02452 -39.771 -20.1075
rradius 42.8584
rwrist -15.8071
rhand -18.2994 58.4184
rfingers 7.12502
rthumb 7.98135 28.5891
lclavicle 5.96354e-015 8.74653e-015
lhumerus 44.0304 45.6253 19.0852
lradius 41.9886
lwrist 42.1753
lhand 152.368 -122.518
lfingers 7.12502
lthumb -181.031 -452.54
rfemur -5.62299 5.83076 6.23215
rtibia 38.077
rfoot -22.5113 1.53661
rtoes -20.6628
lfemur -2.53405 -13.7515 -1.97754
ltibia 33.6118
lfoot -7.93205 24.2148
ltoes -5.9505
214
root -2.1713 17.5539 9.14835 -7.55558 -97.6311 4.55171
lowerback 4.19367 0.871766 -2.25762
upperback 1.2669 0.972426 -2.72521
thorax -1.0408 0.46301 -1.57989
lowerneck -14.6183 12.6947 5.56779
upperneck -2.44099 15.9498 -6.43165
head 2.76065 7.61079 -1.84271
rclavicle -6.68413e-015 -1.27222e-014
rhumerus 5.67168 -39.4949 -20.5479
rradius 42.0822
rwrist -15.0193
rhand -18.0113 58.8636
rfingers 7.12502
rthumb 8.25946 29.0451
lclavicle -6.68413e-015 -1.27222e-014
lhumerus 43.7735 45.4105 17.7805
lradius 44.0142
lwrist 42.8109
lhand 152.397 -121.968
lfingers 7.12502
lthumb -181.002 -451.99
rfemur -5.2593 6.21324 5.63398
rtibia 37.2365
rfoot -21.5343 1.48495
rtoes -19.6667
lfemur -1.49301 -15.3191 -1.60271
ltibia 32.1706
lfoot -7.53184 25.1482
ltoes -4.10879
